<?xml version="1.0" encoding="utf-8"?>
<!-- Generator: Adobe Illustrator 24.0.1, SVG Export Plug-In . SVG Version: 6.00 Build 0)  -->
<svg version="1.1" id="Слой_1" xmlns="http://www.w3.org/2000/svg" xmlns:xlink="http://www.w3.org/1999/xlink" x="0px" y="0px"
	 viewBox="0 0 1200 1200" style="enable-background:new 0 0 1200 1200;" xml:space="preserve">
<style type="text/css">
	.st0{fill:#F2F2F2;}
</style>
<path class="st0" d="M677.1,230c-86.1,0-155.9,69.8-156.1,156.1v0.4c0,5.8,0.1,7.8,0,4.8v109.1H407.7v131.9H521V970h136V632.2h114.1
	l16.8-131.9H657.8l0-99.4c0-0.6,0-1.2,0-1.8c0-25.1,22.5-45.7,50.8-46.8h0.1c0.8,0,1.7-0.1,2.5-0.1c0.8,0,1.6,0,2.4,0.1l78.7-0.1
	v-118C792.3,234.4,767.7,230,677.1,230z M570.1,500.3C570.1,500.3,570.1,500.3,570.1,500.3L570.1,500.3L570.1,500.3z"/>
</svg>
