<?xml version="1.0" encoding="utf-8"?>
<!-- Generator: Adobe Illustrator 24.0.1, SVG Export Plug-In . SVG Version: 6.00 Build 0)  -->
<svg version="1.1" id="Слой_1" xmlns="http://www.w3.org/2000/svg" xmlns:xlink="http://www.w3.org/1999/xlink" x="0px" y="0px"
	 viewBox="0 0 130 145" style="enable-background:new 0 0 130 145;" xml:space="preserve">
<style type="text/css">
	.st0{fill:#FF4800;}
	.st1{fill:url(#SVGID_1_);}
	.st2{fill:url(#SVGID_2_);}
	.st3{fill:url(#SVGID_3_);}
	.st4{fill:url(#SVGID_4_);}
</style>
<g>
	<path class="st0" d="M61,144.4c0,0.4-0.3,0.6-0.7,0.4l-24-13.5c-0.4-0.2-0.7-0.7-0.7-1.2V20.6c0-0.4,0.3-0.6,0.7-0.4l24,13.5
		c0.4,0.2,0.7,0.7,0.7,1.2V144.4z"/>
</g>
<g>
	
		<linearGradient id="SVGID_1_" gradientUnits="userSpaceOnUse" x1="9.3461" y1="-724.83" x2="39.4673" y2="-777.0014" gradientTransform="matrix(1 0 0 -1 0 -729.9055)">
		<stop  offset="0" style="stop-color:#F7931E"/>
		<stop  offset="0.2261" style="stop-color:#F78F1C"/>
		<stop  offset="0.4603" style="stop-color:#F98217"/>
		<stop  offset="0.6982" style="stop-color:#FB6E0F"/>
		<stop  offset="0.9374" style="stop-color:#FE5104"/>
		<stop  offset="1" style="stop-color:#FF4800"/>
	</linearGradient>
	<path class="st1" d="M0.7,0.2C0.3,0,0,0.2,0,0.6v27.5c0,0.4,0.3,1,0.7,1.2l34.7,19.5c0.4,0.2,1,0.2,1.4,0l23.5-14.3
		c0.4-0.2,0.4-0.6,0-0.8L0.7,0.2z"/>
</g>
<g>
	
		<linearGradient id="SVGID_2_" gradientUnits="userSpaceOnUse" x1="9.3461" y1="-774.08" x2="39.4673" y2="-826.2515" gradientTransform="matrix(1 0 0 -1 0 -729.9055)">
		<stop  offset="0" style="stop-color:#F7931E"/>
		<stop  offset="0.2261" style="stop-color:#F78F1C"/>
		<stop  offset="0.4603" style="stop-color:#F98217"/>
		<stop  offset="0.6982" style="stop-color:#FB6E0F"/>
		<stop  offset="0.9374" style="stop-color:#FE5104"/>
		<stop  offset="1" style="stop-color:#FF4800"/>
	</linearGradient>
	<path class="st2" d="M0.7,49.5c-0.4-0.2-0.7,0-0.7,0.4v27.5c0,0.4,0.3,1,0.7,1.2L35.4,98c0.4,0.2,1,0.2,1.4,0l23.5-14.3
		c0.4-0.2,0.4-0.6,0-0.8L0.7,49.5z"/>
</g>
<g>
	<path class="st0" d="M69.1,144.4c0,0.4,0.3,0.6,0.7,0.4l24-13.5c0.4-0.2,0.7-0.7,0.7-1.2V20.6c0-0.4-0.3-0.6-0.7-0.4l-24,13.5
		c-0.4,0.2-0.7,0.7-0.7,1.2C69.1,34.9,69.1,144.4,69.1,144.4z"/>
</g>
<g>
	
		<linearGradient id="SVGID_3_" gradientUnits="userSpaceOnUse" x1="120.6518" y1="-724.8287" x2="90.5305" y2="-777.0003" gradientTransform="matrix(1 0 0 -1 0 -729.9055)">
		<stop  offset="0" style="stop-color:#F7931E"/>
		<stop  offset="0.2261" style="stop-color:#F78F1C"/>
		<stop  offset="0.4603" style="stop-color:#F98217"/>
		<stop  offset="0.6982" style="stop-color:#FB6E0F"/>
		<stop  offset="0.9374" style="stop-color:#FE5104"/>
		<stop  offset="1" style="stop-color:#FF4800"/>
	</linearGradient>
	<path class="st3" d="M129.3,0.2c0.4-0.2,0.7,0,0.7,0.4v27.5c0,0.4-0.3,1-0.7,1.2L94.6,48.8c-0.4,0.2-1,0.2-1.4,0L69.7,34.5
		c-0.4-0.2-0.4-0.6,0-0.8L129.3,0.2z"/>
</g>
<g>
	
		<linearGradient id="SVGID_4_" gradientUnits="userSpaceOnUse" x1="120.6539" y1="-774.0699" x2="90.5326" y2="-826.2415" gradientTransform="matrix(1 0 0 -1 0 -729.9055)">
		<stop  offset="0" style="stop-color:#F7931E"/>
		<stop  offset="0.2261" style="stop-color:#F78F1C"/>
		<stop  offset="0.4603" style="stop-color:#F98217"/>
		<stop  offset="0.6982" style="stop-color:#FB6E0F"/>
		<stop  offset="0.9374" style="stop-color:#FE5104"/>
		<stop  offset="1" style="stop-color:#FF4800"/>
	</linearGradient>
	<path class="st4" d="M129.3,49.5c0.4-0.2,0.7,0,0.7,0.4v27.5c0,0.4-0.3,1-0.7,1.2L94.6,98c-0.4,0.2-1,0.2-1.4,0L69.7,83.7
		c-0.4-0.2-0.4-0.6,0-0.8L129.3,49.5z"/>
</g>
</svg>
