<?xml version="1.0" encoding="utf-8"?>
<!-- Generator: Adobe Illustrator 24.0.1, SVG Export Plug-In . SVG Version: 6.00 Build 0)  -->
<svg version="1.1" id="Слой_1" xmlns="http://www.w3.org/2000/svg" xmlns:xlink="http://www.w3.org/1999/xlink" x="0px" y="0px"
	 viewBox="0 0 204.1 204.1" style="enable-background:new 0 0 204.1 204.1;" xml:space="preserve">
<style type="text/css">
	.st0{fill:#FF4800;}
	.st1{fill:url(#SVGID_1_);}
	.st2{fill:url(#SVGID_2_);}
	.st3{fill:url(#SVGID_3_);}
	.st4{fill:url(#SVGID_4_);}
	.st5{enable-background:new    ;}
	.st6{fill:#EAEAEA;}
</style>
<g>
	<g>
		<path class="st0" d="M98,144.4c0,0.4-0.3,0.6-0.7,0.4l-24-13.5c-0.4-0.2-0.7-0.7-0.7-1.2V20.5c0-0.4,0.3-0.6,0.7-0.4l24,13.5
			c0.4,0.2,0.7,0.7,0.7,1.2V144.4z"/>
	</g>
	<g>
		
			<linearGradient id="SVGID_1_" gradientUnits="userSpaceOnUse" x1="46.387" y1="209.3105" x2="76.531" y2="157.0997" gradientTransform="matrix(1 0 0 -1 0 204.0945)">
			<stop  offset="0" style="stop-color:#F7931E"/>
			<stop  offset="0.2261" style="stop-color:#F78F1C"/>
			<stop  offset="0.4603" style="stop-color:#F98217"/>
			<stop  offset="0.6982" style="stop-color:#FB6E0F"/>
			<stop  offset="0.9374" style="stop-color:#FE5104"/>
			<stop  offset="1" style="stop-color:#FF4800"/>
		</linearGradient>
		<path class="st1" d="M37.7,0.1c-0.4-0.2-0.7,0-0.7,0.4V28c0,0.4,0.3,1,0.7,1.2l34.7,19.5c0.4,0.2,1,0.2,1.4,0l23.5-14.3
			c0.4-0.2,0.4-0.6,0-0.8L37.7,0.1z"/>
	</g>
	<g>
		
			<linearGradient id="SVGID_2_" gradientUnits="userSpaceOnUse" x1="46.387" y1="160.0207" x2="76.531" y2="107.8099" gradientTransform="matrix(1 0 0 -1 0 204.0945)">
			<stop  offset="0" style="stop-color:#F7931E"/>
			<stop  offset="0.2261" style="stop-color:#F78F1C"/>
			<stop  offset="0.4603" style="stop-color:#F98217"/>
			<stop  offset="0.6982" style="stop-color:#FB6E0F"/>
			<stop  offset="0.9374" style="stop-color:#FE5104"/>
			<stop  offset="1" style="stop-color:#FF4800"/>
		</linearGradient>
		<path class="st2" d="M37.7,49.4c-0.4-0.2-0.7,0-0.7,0.4v27.5c0,0.4,0.3,1,0.7,1.2l34.7,19.5c0.4,0.2,1,0.2,1.4,0l23.5-14.3
			c0.4-0.2,0.4-0.6,0-0.8L37.7,49.4z"/>
	</g>
	<g>
		<path class="st0" d="M106.1,144.7c0,0.4,0.3,0.6,0.7,0.4l24-13.5c0.4-0.2,0.7-0.7,0.7-1.2V20.8c0-0.4-0.3-0.6-0.7-0.4l-24,13.5
			c-0.4,0.2-0.7,0.7-0.7,1.2V144.7z"/>
	</g>
	<g>
		
			<linearGradient id="SVGID_3_" gradientUnits="userSpaceOnUse" x1="157.703" y1="208.9646" x2="127.559" y2="156.7537" gradientTransform="matrix(1 0 0 -1 0 204.0945)">
			<stop  offset="0" style="stop-color:#F7931E"/>
			<stop  offset="0.2261" style="stop-color:#F78F1C"/>
			<stop  offset="0.4603" style="stop-color:#F98217"/>
			<stop  offset="0.6982" style="stop-color:#FB6E0F"/>
			<stop  offset="0.9374" style="stop-color:#FE5104"/>
			<stop  offset="1" style="stop-color:#FF4800"/>
		</linearGradient>
		<path class="st3" d="M166.3,0.4c0.4-0.2,0.7,0,0.7,0.4v27.5c0,0.4-0.3,1-0.7,1.2l-34.7,19.5c-0.4,0.2-1,0.2-1.4,0l-23.5-14.3
			c-0.4-0.2-0.4-0.6,0-0.8L166.3,0.4z"/>
	</g>
	<g>
		
			<linearGradient id="SVGID_4_" gradientUnits="userSpaceOnUse" x1="157.703" y1="159.6748" x2="127.559" y2="107.464" gradientTransform="matrix(1 0 0 -1 0 204.0945)">
			<stop  offset="0" style="stop-color:#F7931E"/>
			<stop  offset="0.2261" style="stop-color:#F78F1C"/>
			<stop  offset="0.4603" style="stop-color:#F98217"/>
			<stop  offset="0.6982" style="stop-color:#FB6E0F"/>
			<stop  offset="0.9374" style="stop-color:#FE5104"/>
			<stop  offset="1" style="stop-color:#FF4800"/>
		</linearGradient>
		<path class="st4" d="M166.3,49.7c0.4-0.2,0.7,0,0.7,0.4v27.5c0,0.4-0.3,1-0.7,1.2l-34.7,19.5c-0.4,0.2-1,0.2-1.4,0l-23.5-14.3
			c-0.4-0.2-0.4-0.6,0-0.8L166.3,49.7z"/>
	</g>
</g>
<g>
	<g class="st5">
		<path class="st6" d="M30.6,167.2c0,0.6,0,1.1-0.1,1.5c-0.1,0.4-0.1,0.7-0.2,1c-0.1,0.2-0.2,0.4-0.4,0.5c-0.1,0.1-0.3,0.2-0.5,0.2
			H16.5v10.6h12.1c0.2,0,0.3,0.1,0.5,0.2c0.1,0.1,0.3,0.3,0.4,0.5c0.1,0.2,0.2,0.6,0.2,1c0.1,0.4,0.1,0.9,0.1,1.5
			c0,0.6,0,1.1-0.1,1.5c-0.1,0.4-0.1,0.7-0.2,1c-0.1,0.3-0.2,0.5-0.4,0.6c-0.1,0.1-0.3,0.2-0.5,0.2H16.5v14.7c0,0.2-0.1,0.4-0.2,0.6
			c-0.1,0.2-0.3,0.3-0.7,0.4c-0.3,0.1-0.7,0.2-1.2,0.3c-0.5,0.1-1.2,0.1-2,0.1c-0.8,0-1.4,0-1.9-0.1c-0.5-0.1-0.9-0.1-1.2-0.3
			c-0.3-0.1-0.5-0.3-0.7-0.4c-0.1-0.2-0.2-0.4-0.2-0.6v-35.8c0-0.9,0.2-1.5,0.7-1.9c0.5-0.4,1-0.6,1.7-0.6h18.6
			c0.2,0,0.3,0.1,0.5,0.2c0.1,0.1,0.3,0.3,0.4,0.5c0.1,0.3,0.2,0.6,0.2,1C30.6,166,30.6,166.6,30.6,167.2z"/>
	</g>
	<g class="st5">
		<path class="st6" d="M60.9,187.9c0,0.9-0.2,1.6-0.6,2.1c-0.4,0.4-1,0.7-1.7,0.7H42c0,1.2,0.1,2.2,0.4,3.2c0.3,0.9,0.7,1.8,1.3,2.4
			s1.4,1.2,2.3,1.5c0.9,0.3,2.1,0.5,3.4,0.5c1.3,0,2.5-0.1,3.5-0.3s1.9-0.4,2.6-0.6c0.7-0.2,1.4-0.4,1.8-0.6
			c0.5-0.2,0.9-0.3,1.2-0.3c0.2,0,0.3,0,0.5,0.1c0.1,0.1,0.2,0.2,0.3,0.4c0.1,0.2,0.1,0.4,0.2,0.8c0,0.3,0,0.8,0,1.3
			c0,0.4,0,0.8,0,1.1c0,0.3-0.1,0.6-0.1,0.8c0,0.2-0.1,0.4-0.2,0.6c-0.1,0.2-0.2,0.3-0.3,0.4c-0.1,0.1-0.5,0.3-1.1,0.6
			c-0.6,0.2-1.3,0.5-2.3,0.7c-0.9,0.2-2,0.4-3.1,0.6c-1.2,0.2-2.4,0.3-3.8,0.3c-2.4,0-4.5-0.3-6.4-0.9c-1.8-0.6-3.3-1.5-4.6-2.8
			c-1.2-1.2-2.1-2.8-2.7-4.7c-0.6-1.9-0.9-4.1-0.9-6.7c0-2.4,0.3-4.6,0.9-6.6c0.6-1.9,1.5-3.6,2.7-4.9c1.2-1.4,2.7-2.4,4.4-3.1
			c1.7-0.7,3.7-1.1,5.8-1.1c2.3,0,4.2,0.3,5.8,1c1.6,0.7,2.9,1.6,4,2.8c1,1.2,1.8,2.6,2.3,4.2c0.5,1.6,0.7,3.4,0.7,5.3V187.9z
			 M53.5,185.7c0.1-2.2-0.4-3.9-1.3-5.1c-0.9-1.2-2.4-1.8-4.3-1.8c-1,0-1.8,0.2-2.5,0.5c-0.7,0.4-1.3,0.9-1.8,1.5
			c-0.5,0.6-0.8,1.4-1.1,2.2c-0.3,0.8-0.4,1.7-0.4,2.7H53.5z"/>
		<path class="st6" d="M93.3,202.3c0,0.2-0.1,0.4-0.2,0.5c-0.1,0.2-0.3,0.3-0.6,0.4c-0.3,0.1-0.7,0.2-1.2,0.2
			c-0.5,0.1-1.1,0.1-1.8,0.1c-0.8,0-1.4,0-1.9-0.1c-0.5-0.1-0.9-0.1-1.2-0.2c-0.3-0.1-0.5-0.2-0.6-0.4c-0.1-0.2-0.2-0.3-0.2-0.5
			v-15.5c0-1.3-0.1-2.4-0.3-3.1c-0.2-0.8-0.5-1.4-0.8-1.9c-0.4-0.5-0.8-1-1.4-1.3c-0.6-0.3-1.3-0.4-2-0.4c-1,0-2,0.4-3,1.1
			c-1,0.7-2,1.8-3.1,3.1v18.1c0,0.2-0.1,0.4-0.2,0.5s-0.3,0.3-0.6,0.4c-0.3,0.1-0.7,0.2-1.2,0.2c-0.5,0.1-1.1,0.1-1.9,0.1
			c-0.8,0-1.4,0-1.9-0.1c-0.5-0.1-0.9-0.1-1.2-0.2c-0.3-0.1-0.5-0.2-0.6-0.4c-0.1-0.2-0.2-0.3-0.2-0.5v-27.2c0-0.2,0.1-0.4,0.2-0.5
			c0.1-0.2,0.3-0.3,0.5-0.4c0.3-0.1,0.6-0.2,1-0.2c0.4-0.1,0.9-0.1,1.6-0.1c0.7,0,1.2,0,1.6,0.1c0.4,0.1,0.8,0.1,1,0.2
			c0.2,0.1,0.4,0.2,0.5,0.4c0.1,0.2,0.2,0.3,0.2,0.5v3.1c1.5-1.6,3-2.9,4.6-3.7c1.6-0.8,3.2-1.2,4.9-1.2c1.9,0,3.4,0.3,4.7,0.9
			c1.3,0.6,2.3,1.4,3.1,2.5c0.8,1,1.3,2.3,1.7,3.7c0.3,1.4,0.5,3.1,0.5,5.1V202.3z"/>
		<path class="st6" d="M109.1,165.9c0,1.5-0.3,2.6-0.9,3.2c-0.6,0.6-1.8,0.9-3.5,0.9c-1.7,0-2.9-0.3-3.5-0.9
			c-0.6-0.6-0.9-1.6-0.9-3.1c0-1.5,0.3-2.6,0.9-3.2c0.6-0.6,1.8-0.9,3.5-0.9c1.7,0,2.9,0.3,3.5,0.9
			C108.8,163.4,109.1,164.4,109.1,165.9z M108.5,202.3c0,0.2-0.1,0.4-0.2,0.5c-0.1,0.2-0.3,0.3-0.6,0.4c-0.3,0.1-0.7,0.2-1.2,0.2
			c-0.5,0.1-1.1,0.1-1.9,0.1c-0.8,0-1.4,0-1.9-0.1c-0.5-0.1-0.9-0.1-1.2-0.2c-0.3-0.1-0.5-0.2-0.6-0.4c-0.1-0.2-0.2-0.3-0.2-0.5
			v-27.2c0-0.2,0.1-0.4,0.2-0.5c0.1-0.2,0.3-0.3,0.6-0.4c0.3-0.1,0.7-0.2,1.2-0.3c0.5-0.1,1.1-0.1,1.9-0.1c0.8,0,1.4,0,1.9,0.1
			c0.5,0.1,0.9,0.1,1.2,0.3c0.3,0.1,0.5,0.2,0.6,0.4c0.1,0.2,0.2,0.3,0.2,0.5V202.3z"/>
	</g>
	<g class="st5">
		<path class="st6" d="M141.5,202.4c0,0.2-0.1,0.4-0.2,0.5c-0.1,0.2-0.3,0.3-0.6,0.4c-0.3,0.1-0.7,0.2-1.2,0.2
			c-0.5,0.1-1.2,0.1-2,0.1c-0.8,0-1.5,0-2-0.1c-0.5,0-0.9-0.1-1.3-0.2c-0.3-0.1-0.6-0.2-0.8-0.4c-0.2-0.2-0.3-0.4-0.5-0.6l-9.1-14.4
			v14.4c0,0.2-0.1,0.4-0.2,0.5c-0.1,0.2-0.3,0.3-0.6,0.4c-0.3,0.1-0.7,0.2-1.2,0.2c-0.5,0.1-1.1,0.1-1.9,0.1c-0.8,0-1.4,0-1.9-0.1
			c-0.5-0.1-0.9-0.1-1.2-0.2c-0.3-0.1-0.5-0.2-0.6-0.4s-0.2-0.3-0.2-0.5v-40.2c0-0.2,0.1-0.4,0.2-0.5s0.3-0.3,0.6-0.4
			c0.3-0.1,0.7-0.2,1.2-0.3c0.5-0.1,1.1-0.1,1.9-0.1c0.8,0,1.4,0,1.9,0.1c0.5,0.1,0.9,0.1,1.2,0.3c0.3,0.1,0.5,0.2,0.6,0.4
			c0.1,0.2,0.2,0.3,0.2,0.5v23.9l8.1-10.8c0.2-0.2,0.3-0.5,0.5-0.6s0.5-0.3,0.8-0.4c0.3-0.1,0.8-0.2,1.3-0.2
			c0.5-0.1,1.1-0.1,1.9-0.1c0.8,0,1.4,0,1.9,0.1c0.5,0.1,0.9,0.1,1.3,0.2c0.3,0.1,0.5,0.2,0.7,0.4c0.1,0.2,0.2,0.3,0.2,0.6
			c0,0.3-0.1,0.6-0.2,1c-0.2,0.3-0.4,0.7-0.7,1.1l-8,9l9.2,14.3c0.2,0.4,0.4,0.8,0.5,1.1C141.5,201.9,141.5,202.1,141.5,202.4z"/>
	</g>
	<g class="st5">
		<path class="st6" d="M164.9,194.7c0,1.5-0.3,2.9-0.9,4.1c-0.6,1.2-1.4,2.2-2.5,3c-1.1,0.8-2.3,1.4-3.8,1.8c-1.4,0.4-3,0.6-4.7,0.6
			c-1,0-2-0.1-2.9-0.2c-0.9-0.2-1.8-0.3-2.5-0.6s-1.3-0.5-1.8-0.7s-0.8-0.5-1.1-0.7c-0.2-0.2-0.4-0.5-0.5-1c-0.1-0.5-0.2-1.1-0.2-2
			c0-0.6,0-1.1,0.1-1.4c0-0.4,0.1-0.6,0.2-0.9c0.1-0.2,0.2-0.4,0.3-0.4c0.1-0.1,0.3-0.1,0.5-0.1c0.2,0,0.6,0.1,1,0.4
			c0.4,0.3,1,0.5,1.6,0.8c0.7,0.3,1.4,0.6,2.3,0.9c0.9,0.3,1.8,0.4,2.9,0.4c0.7,0,1.3-0.1,1.8-0.2c0.5-0.1,1-0.3,1.4-0.6
			c0.4-0.3,0.7-0.6,0.9-1c0.2-0.4,0.3-0.9,0.3-1.4c0-0.6-0.2-1.1-0.6-1.6s-0.9-0.8-1.5-1.1c-0.6-0.3-1.3-0.6-2.1-0.9
			c-0.8-0.3-1.6-0.6-2.4-0.9c-0.8-0.3-1.6-0.7-2.4-1.2c-0.8-0.4-1.5-1-2.1-1.6c-0.6-0.7-1.1-1.4-1.5-2.4c-0.4-0.9-0.6-2-0.6-3.3
			c0-1.3,0.3-2.5,0.8-3.6c0.5-1.1,1.2-2,2.2-2.8c1-0.8,2.1-1.4,3.5-1.8c1.4-0.4,2.9-0.6,4.6-0.6c0.9,0,1.7,0.1,2.5,0.2
			c0.8,0.1,1.5,0.3,2.2,0.5c0.7,0.2,1.2,0.4,1.6,0.6c0.4,0.2,0.8,0.4,1,0.5c0.2,0.2,0.3,0.3,0.4,0.5c0.1,0.2,0.1,0.3,0.2,0.5
			c0,0.2,0.1,0.5,0.1,0.8c0,0.3,0,0.7,0,1.2c0,0.5,0,1,0,1.3c0,0.3-0.1,0.6-0.2,0.8c-0.1,0.2-0.2,0.3-0.3,0.4
			c-0.1,0.1-0.3,0.1-0.4,0.1c-0.2,0-0.5-0.1-0.9-0.3c-0.4-0.2-0.9-0.4-1.4-0.7c-0.6-0.2-1.3-0.5-2-0.7c-0.8-0.2-1.6-0.3-2.6-0.3
			c-0.7,0-1.3,0.1-1.8,0.2c-0.5,0.1-0.9,0.3-1.3,0.6c-0.3,0.3-0.6,0.6-0.7,0.9c-0.2,0.4-0.2,0.7-0.2,1.1c0,0.6,0.2,1.2,0.6,1.6
			c0.4,0.4,0.9,0.8,1.5,1.1c0.6,0.3,1.3,0.6,2.2,0.9c0.8,0.3,1.6,0.6,2.4,0.9c0.8,0.3,1.6,0.7,2.4,1.2c0.8,0.4,1.5,1,2.2,1.6
			c0.6,0.7,1.1,1.4,1.5,2.3C164.7,192.3,164.9,193.4,164.9,194.7z"/>
		<path class="st6" d="M195.6,200.3c0,0.6,0,1.1-0.1,1.4c-0.1,0.4-0.1,0.7-0.3,0.9c-0.1,0.2-0.2,0.4-0.4,0.5
			c-0.1,0.1-0.3,0.2-0.5,0.2h-21.8c-0.2,0-0.3-0.1-0.5-0.2c-0.1-0.1-0.3-0.3-0.4-0.5c-0.1-0.2-0.2-0.6-0.3-0.9
			c-0.1-0.4-0.1-0.9-0.1-1.4c0-0.6,0-1.1,0.1-1.5c0.1-0.4,0.1-0.7,0.2-1c0.1-0.2,0.2-0.4,0.4-0.5c0.1-0.1,0.3-0.2,0.5-0.2h7.4v-25.7
			l-6.4,3.5c-0.5,0.2-0.8,0.4-1.1,0.4c-0.3,0.1-0.5,0-0.7-0.2s-0.3-0.5-0.4-0.9s-0.1-1-0.1-1.8c0-0.5,0-0.9,0-1.2s0.1-0.6,0.2-0.8
			c0.1-0.2,0.2-0.4,0.3-0.5c0.1-0.1,0.3-0.3,0.6-0.5l8.5-5.5c0.1-0.1,0.2-0.1,0.4-0.2c0.2,0,0.4-0.1,0.6-0.1c0.2,0,0.6-0.1,1-0.1
			c0.4,0,0.9,0,1.5,0c0.8,0,1.4,0,1.9,0c0.5,0,0.8,0.1,1.1,0.2c0.2,0.1,0.4,0.2,0.5,0.3c0.1,0.1,0.1,0.3,0.1,0.5v32.6h6.4
			c0.2,0,0.4,0.1,0.5,0.2c0.2,0.1,0.3,0.3,0.4,0.5c0.1,0.2,0.2,0.6,0.2,1C195.6,199.2,195.6,199.7,195.6,200.3z"/>
	</g>
</g>
</svg>
