<?xml version="1.0" encoding="utf-8"?>
<!-- Generator: Adobe Illustrator 24.0.1, SVG Export Plug-In . SVG Version: 6.00 Build 0)  -->
<svg version="1.1" id="Слой_1" xmlns="http://www.w3.org/2000/svg" xmlns:xlink="http://www.w3.org/1999/xlink" x="0px" y="0px"
	 viewBox="0 0 1200 1200" style="enable-background:new 0 0 1200 1200;" xml:space="preserve">
<style type="text/css">
	.st0{fill:none;stroke:#F2F2F2;stroke-width:20;stroke-miterlimit:10;}
	.st1{fill:#F2F2F2;}
</style>
<path class="st0" d="M959.9,817.6l0-1.2v-439c0-2.7-0.3-5.3-0.8-7.9c-4.2-19-21.1-33.3-41.3-33.3h-16.9H295.5h-14.3
	c-22.7,0-41.2,18.4-41.2,41.2v445.2c0,22.7,18.4,41.2,41.2,41.2h49.5h538.5H914C939.5,863.8,960.1,843.1,959.9,817.6z"/>
<polygon class="st1" points="297.3,336.2 902.7,336.2 601.8,552 "/>
<polygon class="st1" points="330.7,472.2 600,664.9 869.3,469.4 869.2,863.8 330.7,863.8 "/>
</svg>
