<?xml version="1.0" encoding="utf-8"?>
<!-- Generator: Adobe Illustrator 24.0.1, SVG Export Plug-In . SVG Version: 6.00 Build 0)  -->
<svg version="1.1" id="Слой_1" xmlns="http://www.w3.org/2000/svg" xmlns:xlink="http://www.w3.org/1999/xlink" x="0px" y="0px"
	 viewBox="0 0 600 600" style="enable-background:new 0 0 600 600;" xml:space="preserve">
<style type="text/css">
	.st0{fill:#F2F2F2;stroke:#F1F1F1;stroke-width:16;stroke-miterlimit:10;}
	.st1{fill:#D8D8D8;stroke:#D8D8D8;stroke-width:16;stroke-miterlimit:10;}
	.st2{fill:#F2F2F2;}
	.st3{fill:#F2F2F2;stroke:#F2F2F2;stroke-width:16;stroke-miterlimit:10;}
</style>
<path class="st0" d="M148.9,222.6v227.5h-27.4c-10.3,0-18.6-8.3-18.6-18.6V189.1l30,0.8L148.9,222.6z"/>
<path class="st1" d="M497,189.1v242.4c0,10.3-8.3,18.6-18.6,18.6h-27.4V222.6l15.2-35.8L497,189.1z"/>
<polygon class="st1" points="148.9,222.6 103,215.5 103,189.1 "/>
<rect x="619.5" y="438" transform="matrix(-1 -1.224647e-16 1.224647e-16 -1 1631.4783 957.8201)" class="st2" width="392.6" height="81.9"/>
<rect x="674.3" y="446" style="fill:none;" width="282.5" height="57.9"/>
<text transform="matrix(1 0 0 1 741.7404 503.6703)" style="font-family:'Calibri'; font-size:85px;">mail</text>
<polygon style="fill:none;" points="775.6,532.2 786.6,532.2 786.6,532.2 775.6,532.2 "/>
<path class="st3" d="M497,168.5v20.7l-46,33.5L300,332.8L148.9,222.6l-46-33.5v-20.7c0-10.3,8.3-18.6,18.6-18.6h10.8L300,272.1
	l167.7-122.2h10.7C488.7,149.9,497,158.2,497,168.5z"/>
</svg>
