<?xml version="1.0" encoding="utf-8"?>
<!-- Generator: Adobe Illustrator 26.0.3, SVG Export Plug-In . SVG Version: 6.00 Build 0)  -->
<svg version="1.1" id="Слой_1" xmlns="http://www.w3.org/2000/svg" xmlns:xlink="http://www.w3.org/1999/xlink" x="0px" y="0px"
	 viewBox="0 0 254 190" style="enable-background:new 0 0 254 190;" xml:space="preserve">
<style type="text/css">
	.st0{fill:#FFFFFF;}
</style>
<g transform="translate(1.4065934065934016 1.4065934065934016) scale(2.81 2.81)">
	<path class="st0" d="M75.3,66.9h-61c-8,0-14.5-6.4-14.5-14.4V13.9c0-8,6.5-14.5,14.5-14.5h61.1c8,0,14.5,6.5,14.5,14.5v38.6
		C89.8,60.5,83.3,66.9,75.3,66.9z M14.3,3.7C8.7,3.7,4.1,8.3,4.1,13.9v38.6c0,5.6,4.6,10.2,10.2,10.2h61.1c5.6,0,10.2-4.6,10.2-10.2
		V13.9c0-5.6-4.6-10.2-10.2-10.2C75.4,3.7,14.3,3.7,14.3,3.7z"/>
	<path class="st0" d="M10.8,14.1c10.8,10.5,21.7,21.1,32.5,31.6c2,2,5.1-1.1,3.1-3.1C35.5,32.1,24.7,21.6,13.9,11
		C11.9,9.1,8.8,12.2,10.8,14.1L10.8,14.1z"/>
	<path class="st0" d="M46.3,45.7C57.1,35.2,68,24.6,78.8,14.1c2-2-1.1-5.1-3.1-3.1C64.9,21.6,54.1,32.1,43.3,42.6
		C41.2,44.6,44.3,47.7,46.3,45.7L46.3,45.7z"/>
	<path class="st0" d="M78.6,53.2C71.4,46.4,64.2,39.6,57,32.7c-2-1.9-5.1,1.1-3.1,3.1c7.2,6.8,14.4,13.6,21.6,20.5
		C77.6,58.2,80.7,55.1,78.6,53.2L78.6,53.2z"/>
	<path class="st0" d="M14.2,56.2c7.2-6.8,14.4-13.6,21.6-20.5c2-1.9-1-5-3.1-3.1c-7.2,6.9-14.4,13.7-21.5,20.6
		C9.1,55.1,12.2,58.2,14.2,56.2L14.2,56.2z"/>
</g>
</svg>
