<?xml version="1.0" encoding="utf-8"?>
<!-- Generator: Adobe Illustrator 24.0.1, SVG Export Plug-In . SVG Version: 6.00 Build 0)  -->
<svg version="1.1" id="Слой_1" xmlns="http://www.w3.org/2000/svg" xmlns:xlink="http://www.w3.org/1999/xlink" x="0px" y="0px"
	 viewBox="0 0 500 350" style="enable-background:new 0 0 500 350;" xml:space="preserve">
<style type="text/css">
	.st0{fill:url(#SVGID_1_);}
	.st1{opacity:0.99;}
	.st2{fill:#FFFFFF;}
	.st3{fill:url(#SVGID_2_);}
	.st4{fill:#4DCFE0;}
</style>
<g>
	<linearGradient id="SVGID_1_" gradientUnits="userSpaceOnUse" x1="462.5" y1="387.5" x2="37.5" y2="-37.5">
		<stop  offset="0" style="stop-color:#FFE9D9"/>
		<stop  offset="1" style="stop-color:#FFD5BD"/>
	</linearGradient>
	<rect class="st0" width="500" height="350"/>
</g>
<g class="st1">
	<circle class="st2" cx="250" cy="175" r="140"/>
</g>
<radialGradient id="SVGID_2_" cx="250" cy="175" r="125" gradientTransform="matrix(1 0 0 -1 0 350)" gradientUnits="userSpaceOnUse">
	<stop  offset="0" style="stop-color:#ADD8D8"/>
	<stop  offset="1" style="stop-color:#9AD9DB;stop-opacity:0"/>
</radialGradient>
<circle class="st3" cx="250" cy="175" r="125"/>
<path class="st4" d="M301.1,162.7c-1.1-2.1-3.4-3.6-5.7-3.6l-33.4-1l-1-61.9c-0.1-3-2.1-5.6-5.1-6.5c-2.9-0.9-6.1,0.6-7.5,3.2
	l-49.5,85.6c-1,2-1.3,4.4-0.3,6.3c1.1,2.1,2.9,3.4,5,3.7l33.2,5l-2.3,60.2c-0.2,3,2,5.9,4.9,6.8c1,0.3,2.1,0.3,3.3,0.1
	c1.8-0.3,3.6-1.6,4.5-3.1l53.9-88.2C302.4,167.3,302.4,164.8,301.1,162.7z"/>
</svg>
