<?xml version="1.0" encoding="utf-8"?>
<!-- Generator: Adobe Illustrator 26.0.3, SVG Export Plug-In . SVG Version: 6.00 Build 0)  -->
<svg version="1.1" id="Слой_1" xmlns="http://www.w3.org/2000/svg" xmlns:xlink="http://www.w3.org/1999/xlink" x="0px" y="0px"
	 viewBox="0 0 254 190" style="enable-background:new 0 0 254 190;" xml:space="preserve">
<style type="text/css">
	.st0{fill:#FFFFFF;}
</style>
<g>
	<g>
		<path class="st0" d="M178.2,117.7c-3.9-4.1-8.6-6.2-13.6-6.2c-4.9,0-9.7,2.1-13.7,6.2l-12.7,12.6c-1-0.6-2.1-1.1-3.1-1.6
			c-1.4-0.7-2.8-1.4-4-2.1c-11.9-7.5-22.7-17.4-33-30.1c-5-6.3-8.4-11.7-10.8-17.1c3.3-3,6.3-6.1,9.3-9.1c1.1-1.1,2.3-2.3,3.4-3.4
			c8.4-8.4,8.4-19.3,0-27.7l-10.9-11c-1.2-1.2-2.5-2.5-3.7-3.8c-2.4-2.5-4.9-5.1-7.5-7.5C74,13.1,69.4,11,64.5,11s-9.6,2-13.6,5.9
			c0,0,0,0-0.1,0.1L37,30.7c-5.2,5.1-8.1,11.4-8.7,18.6c-1,11.7,2.5,22.6,5.1,29.8c6.5,17.5,16.2,33.8,30.7,51.2
			c17.6,21,38.7,37.5,62.8,49.2c9.2,4.4,21.5,9.5,35.3,10.4c0.8,0,1.7,0.1,2.5,0.1c9.3,0,17.1-3.3,23.1-10c0-0.1,0.1-0.1,0.2-0.2
			c2.1-2.5,4.5-4.8,7-7.3c1.7-1.6,3.5-3.4,5.2-5.2c4-4.1,6.1-9,6.1-13.9c0-5-2.1-9.7-6.2-13.8L178.2,117.7z M192.5,159.9
			C192.5,159.9,192.5,160,192.5,159.9c-1.6,1.7-3.2,3.2-4.9,4.9c-2.6,2.5-5.2,5.1-7.7,8c-4.1,4.3-8.8,6.4-15.1,6.4
			c-0.6,0-1.2,0-1.9,0c-11.9-0.8-23-5.4-31.3-9.4c-22.7-11-42.6-26.6-59.2-46.4c-13.6-16.4-22.7-31.7-28.8-48
			c-3.7-10-5.1-17.8-4.5-25.1c0.4-4.7,2.2-8.6,5.5-11.9l13.7-13.7c2-1.9,4.1-2.8,6.1-2.8c2.5,0,4.6,1.5,5.9,2.8l0.1,0.1
			c2.4,2.3,4.8,4.7,7.2,7.2c1.2,1.3,2.5,2.6,3.8,3.9l10.9,10.9c4.3,4.3,4.3,8.2,0,12.4c-1.2,1.2-2.3,2.3-3.4,3.4
			c-3.4,3.4-6.6,6.6-10.1,9.8c-0.1,0.1-0.2,0.1-0.2,0.2c-3.4,3.4-2.8,6.8-2.1,9.1c0,0.1,0.1,0.2,0.1,0.4c2.8,6.9,6.9,13.4,12.9,21.1
			l0,0c11.1,13.6,22.7,24.3,35.6,32.4c1.6,1,3.3,1.9,4.9,2.7c1.4,0.7,2.8,1.4,4,2.1c0.2,0.1,0.3,0.2,0.5,0.3c1.4,0.7,2.6,1,4,1
			c3.3,0,5.4-2.1,6.1-2.8l13.7-13.7c1.4-1.4,3.5-3,6.1-3c2.5,0,4.5,1.6,5.8,2.9c0,0,0,0,0.1,0.1l22.1,22.1
			C196.6,151.5,196.6,155.7,192.5,159.9z"/>
		<path class="st0" d="M130.7,45.2c10.5,1.8,20,6.7,27.7,14.3c7.6,7.6,12.5,17.2,14.3,27.7c0.5,2.6,2.7,4.5,5.3,4.5
			c0.3,0,0.6,0,0.9-0.1c3-0.5,4.9-3.3,4.4-6.2c-2.2-12.7-8.2-24.3-17.4-33.5s-20.8-15.2-33.5-17.4c-3-0.5-5.7,1.5-6.2,4.4
			C125.8,41.9,127.7,44.7,130.7,45.2z"/>
		<path class="st0" d="M217.8,83.8c-3.6-20.9-13.4-40-28.6-55.1C174,13.5,155,3.7,134,0.1c-2.9-0.5-5.7,1.5-6.2,4.4
			c-0.5,3,1.5,5.7,4.4,6.2c18.7,3.2,35.7,12,49.3,25.6s22.4,30.6,25.6,49.3c0.5,2.6,2.7,4.5,5.3,4.5c0.3,0,0.6,0,0.9-0.1
			C216.3,89.5,218.3,86.7,217.8,83.8z"/>
	</g>
</g>
</svg>
