<?xml version="1.0" encoding="utf-8"?>
<!-- Generator: Adobe Illustrator 24.0.1, SVG Export Plug-In . SVG Version: 6.00 Build 0)  -->
<svg version="1.1" id="Слой_1" xmlns="http://www.w3.org/2000/svg" xmlns:xlink="http://www.w3.org/1999/xlink" x="0px" y="0px"
	 viewBox="0 0 500 350" style="enable-background:new 0 0 500 350;" xml:space="preserve">
<style type="text/css">
	.st0{fill:url(#SVGID_1_);}
	.st1{fill:url(#SVGID_2_);}
	.st2{fill:#76E2F8;}
	.st3{fill:#28CBF7;}
	.st4{fill:#9BFCFF;}
</style>
<g>
	<linearGradient id="SVGID_1_" gradientUnits="userSpaceOnUse" x1="462.5" y1="387.15" x2="37.5" y2="-37.85">
		<stop  offset="0" style="stop-color:#FFE9D9"/>
		<stop  offset="1" style="stop-color:#FFD5BD"/>
	</linearGradient>
	<rect y="-0.4" class="st0" width="500" height="350"/>
</g>
<g>
	
		<linearGradient id="SVGID_2_" gradientUnits="userSpaceOnUse" x1="179.9883" y1="296.2638" x2="320.0117" y2="53.7362" gradientTransform="matrix(1 0 0 -1 0 350)">
		<stop  offset="0" style="stop-color:#85BFE0"/>
		<stop  offset="0.5" style="stop-color:#1E9CD7"/>
		<stop  offset="0.85" style="stop-color:#0075BE"/>
	</linearGradient>
	<circle class="st1" cx="250" cy="175" r="140"/>
</g>
<g>
	<g>
		<path class="st2" d="M318.1,174.7l-46.6-12.4l12.4-46.2l-33.8,33.8l-33.8-33.8l12.4,46.2l-46.6,12.4l46.6,12.3l-12.4,46.2
			l33.8-33.8l33.8,33.8L271.5,187L318.1,174.7z"/>
	</g>
	<polygon class="st3" points="271.5,187 283.9,233.2 250.1,199.5 250.1,149.9 283.9,116.1 271.5,162.3 318.1,174.7 	"/>
	<polygon class="st4" points="259.2,174.7 292,193.6 287.4,201.5 254.6,182.6 254.6,220.4 245.5,220.4 245.5,182.6 212.7,201.5 
		208.2,193.6 240.9,174.7 208.2,155.7 212.7,147.9 245.5,166.7 245.5,128.9 254.6,128.9 254.6,166.7 287.4,147.9 292,155.7 	"/>
	<polygon class="st2" points="259.2,174.7 292,193.6 287.4,201.5 254.6,182.6 254.6,220.4 250.1,220.4 250.1,128.9 254.6,128.9 
		254.6,166.7 287.4,147.9 292,155.7 	"/>
	<g>
		<path class="st4" d="M250.1,96.6l-15,23.7l15,15.1l15-15.1L250.1,96.6z"/>
	</g>
	<g>
		<path class="st4" d="M250.1,213.9l-15,15.1l15,23.7l15-23.7L250.1,213.9z"/>
	</g>
	<g>
		<path class="st4" d="M195.5,160.5l-12.3-24.3l27.3-1.7L216,155L195.5,160.5z"/>
	</g>
	<g>
		<path class="st2" d="M289.6,214.8l-5.5-20.5l20.5-5.5l12,24.3L289.6,214.8z"/>
	</g>
	<g>
		<path class="st4" d="M210.6,214.8l-27.3-1.7l12.3-24.3l20.5,5.5L210.6,214.8z"/>
	</g>
	<g>
		<path class="st2" d="M304.6,160.5l-20.5-5.5l5.5-20.5l27,1.7L304.6,160.5z"/>
	</g>
	<rect x="300.4" y="115.2" class="st2" width="9.1" height="9.1"/>
	<rect x="263.8" y="96.6" class="st2" width="9.1" height="9.1"/>
	<rect x="227.2" y="96.6" class="st4" width="9.1" height="9.1"/>
	<rect x="319" y="151.8" class="st2" width="9.1" height="9.1"/>
	<rect x="190.6" y="115.2" class="st4" width="9.1" height="9.1"/>
	<rect x="172" y="151.8" class="st4" width="9.1" height="9.1"/>
	<rect x="172" y="188.4" class="st4" width="9.1" height="9.1"/>
	<rect x="199.7" y="225" class="st4" width="9.1" height="9.1"/>
	<rect x="227.2" y="243.6" class="st4" width="9.1" height="9.1"/>
	<rect x="263.8" y="243.6" class="st2" width="9.1" height="9.1"/>
	<rect x="319" y="188.4" class="st2" width="9.1" height="9.1"/>
	<rect x="291.2" y="225" class="st2" width="9.1" height="9.1"/>
	<polygon class="st2" points="250.1,213.9 265.1,229 250.1,252.7 	"/>
	<polygon class="st2" points="265.1,120.3 250.1,135.4 250.1,96.6 	"/>
</g>
</svg>
