<?xml version="1.0" encoding="utf-8"?>
<!-- Generator: Adobe Illustrator 24.0.1, SVG Export Plug-In . SVG Version: 6.00 Build 0)  -->
<svg version="1.1" id="Слой_1" xmlns="http://www.w3.org/2000/svg" xmlns:xlink="http://www.w3.org/1999/xlink" x="0px" y="0px"
	 viewBox="0 0 1200 1200" style="enable-background:new 0 0 1200 1200;" xml:space="preserve">
<style type="text/css">
	.st0{fill:#F2F2F2;}
</style>
<path class="st0" d="M864.65,337.47c-54.49,24.55-555.83,224.29-555.83,224.29s-34.33,25.67,12.53,39.62
	c46.86,13.95,134.6,40.17,134.6,40.17s41.42,137.81,51.77,170.74c10.35,32.92,34.88,20.08,34.88,20.08l86.17-85.3l142.7,112.08
	c0,0,31.06,13.95,40.87-18.42c9.8-32.36,96.99-473.15,96.99-473.15S919.15,312.92,864.65,337.47z M800.76,440.97L539.87,677.26
	l-15.26,101L478.3,633.74l316.06-204.21C794.36,429.53,817.65,415.86,800.76,440.97z"/>
</svg>
